<svg width="20" height="20" viewBox="0 0 20 20" fill="none" xmlns="http://www.w3.org/2000/svg">
<g clip-path="url(#clip0_225_234373)">
<path d="M7.91797 12L9.10844 13.3333L12.0846 10" stroke="#8C8C8C" stroke-width="1.5" stroke-linecap="round" stroke-linejoin="round"/>
<path d="M1.66797 9.99989C1.66797 6.07151 1.66797 4.10733 2.88836 2.88694C3.92238 1.85292 5.49036 1.69501 8.33464 1.6709M18.3346 9.99989C18.3346 6.07151 18.3346 4.10733 17.1142 2.88694C16.0802 1.85292 14.5122 1.69501 11.668 1.6709" stroke="#8C8C8C" stroke-width="1.5" stroke-linecap="round"/>
<path d="M8.33464 18.3333C6.00108 18.3333 4.83431 18.3333 3.94301 17.8792C3.159 17.4797 2.52158 16.8423 2.12211 16.0583C1.66797 15.167 1.66797 14.0002 1.66797 11.6667C1.66797 9.33311 1.66797 8.16634 2.12211 7.27504C2.52158 6.49103 3.159 5.85361 3.94301 5.45414C4.83431 5 6.00108 5 8.33464 5H11.668C14.0015 5 15.1683 5 16.0596 5.45414C16.8436 5.85361 17.481 6.49103 17.8805 7.27504C18.3346 8.16634 18.3346 9.33311 18.3346 11.6667C18.3346 14.0002 18.3346 15.167 17.8805 16.0583C17.481 16.8423 16.8436 17.4797 16.0596 17.8792C15.1683 18.3333 14.0015 18.3333 11.668 18.3333" stroke="#8C8C8C" stroke-width="1.5" stroke-linecap="round"/>
</g>
<defs>
<clipPath id="clip0_225_234373">
<rect width="20" height="20" rx="5" fill="white"/>
</clipPath>
</defs>
</svg>
