<svg width="20" height="21" viewBox="0 0 20 21" fill="none" xmlns="http://www.w3.org/2000/svg">
<path d="M17.5013 2.33203H2.5013C2.04106 2.33203 1.66797 2.70513 1.66797 3.16536V18.1654C1.66797 18.6256 2.04106 18.9987 2.5013 18.9987H17.5013C17.9615 18.9987 18.3346 18.6256 18.3346 18.1654V3.16536C18.3346 2.70513 17.9615 2.33203 17.5013 2.33203Z" fill="white" stroke="white" stroke-width="2" stroke-linecap="round" stroke-linejoin="round"/>
<path d="M1.66797 6.49805H18.3346Z" fill="#E35A0A"/>
<path d="M1.66797 6.49805H18.3346" stroke="#E35A0A" stroke-width="2" stroke-linecap="round" stroke-linejoin="round"/>
<path d="M18.332 5.24805V10.248" stroke="white" stroke-width="2" stroke-linecap="round" stroke-linejoin="round"/>
<path d="M5 9.83203H6.66667" stroke="#E35A0A" stroke-width="2" stroke-linecap="round" stroke-linejoin="round"/>
<path d="M9.16797 9.83203H10.8346" stroke="#E35A0A" stroke-width="2" stroke-linecap="round" stroke-linejoin="round"/>
<path d="M13.332 9.83203H14.9987" stroke="#E35A0A" stroke-width="2" stroke-linecap="round" stroke-linejoin="round"/>
<path d="M5 12.748H6.66667" stroke="#E35A0A" stroke-width="2" stroke-linecap="round" stroke-linejoin="round"/>
<path d="M9.16797 12.748H10.8346" stroke="#E35A0A" stroke-width="2" stroke-linecap="round" stroke-linejoin="round"/>
<path d="M13.332 12.748H14.9987" stroke="#E35A0A" stroke-width="2" stroke-linecap="round" stroke-linejoin="round"/>
<path d="M5 15.665H6.66667" stroke="#E35A0A" stroke-width="2" stroke-linecap="round" stroke-linejoin="round"/>
<path d="M9.16797 15.665H10.8346" stroke="#E35A0A" stroke-width="2" stroke-linecap="round" stroke-linejoin="round"/>
<path d="M13.332 15.665H14.9987" stroke="#E35A0A" stroke-width="2" stroke-linecap="round" stroke-linejoin="round"/>
<path d="M1.66797 5.24805V10.248" stroke="white" stroke-width="2" stroke-linecap="round" stroke-linejoin="round"/>
</svg>
