<svg width="24" height="25" viewBox="0 0 24 25" fill="none" xmlns="http://www.w3.org/2000/svg">
<path d="M19 14.665H5C3.89543 14.665 3 15.5605 3 16.665V19.665C3 20.7696 3.89543 21.665 5 21.665H19C20.1046 21.665 21 20.7696 21 19.665V16.665C21 15.5605 20.1046 14.665 19 14.665Z" stroke="#1A1A1A" stroke-width="2"/>
<path d="M10 4.16504H5C3.89543 4.16504 3 5.06047 3 6.16504V9.16504C3 10.2696 3.89543 11.165 5 11.165H10" stroke="#1A1A1A" stroke-width="2" stroke-linecap="round"/>
<path d="M17 11.665C19.2091 11.665 21 9.87418 21 7.66504C21 5.4559 19.2091 3.66504 17 3.66504C14.7909 3.66504 13 5.4559 13 7.66504C13 9.87418 14.7909 11.665 17 11.665Z" stroke="#1A1A1A" stroke-width="2"/>
<path d="M17 9.16504C17.8284 9.16504 18.5 8.49347 18.5 7.66504C18.5 6.83661 17.8284 6.16504 17 6.16504C16.1716 6.16504 15.5 6.83661 15.5 7.66504C15.5 8.49347 16.1716 9.16504 17 9.16504Z" fill="#1A1A1A"/>
</svg>
