<svg width="20" height="20" viewBox="0 0 20 20" fill="none" xmlns="http://www.w3.org/2000/svg">
<g clip-path="url(#clip0_225_234556)">
<path d="M18.3346 18.3335H1.66797" stroke="#8C8C8C" stroke-width="1.5" stroke-linecap="round"/>
<path d="M17.5 18.3335V12.0835C17.5 11.3931 16.9404 10.8335 16.25 10.8335H13.75C13.0596 10.8335 12.5 11.3931 12.5 12.0835V18.3335" stroke="#8C8C8C" stroke-width="1.5"/>
<path d="M12.5 18.3332V7.49984M7.5 18.3332V4.1665C7.5 2.98799 7.5 2.39874 7.86612 2.03262C8.23223 1.6665 8.82149 1.6665 10 1.6665C11.1785 1.6665 11.7678 1.6665 12.1339 2.03262C12.5 2.39874 12.5 2.98799 12.5 4.1665V4.1665" stroke="#8C8C8C" stroke-width="1.5" stroke-linecap="round" stroke-linejoin="round"/>
<path d="M7.5 18.3332V7.9165C7.5 7.22615 6.94036 6.6665 6.25 6.6665H3.75C3.05964 6.6665 2.5 7.22615 2.5 7.9165V13.3332M2.5 18.3332V16.4582" stroke="#8C8C8C" stroke-width="1.5" stroke-linecap="round"/>
</g>
<defs>
<clipPath id="clip0_225_234556">
<rect width="20" height="20" fill="white"/>
</clipPath>
</defs>
</svg>
