<svg width="20" height="20" viewBox="0 0 20 20" fill="none" xmlns="http://www.w3.org/2000/svg">
<g clip-path="url(#clip0_225_234572)">
<path d="M18.3346 18.3332H10.0013C6.07293 18.3332 4.10875 18.3332 2.88836 17.1128C1.66797 15.8924 1.66797 13.9282 1.66797 9.99984V7.49984M1.66797 1.6665V4.1665" stroke="#8C8C8C" stroke-width="1.5" stroke-linecap="round"/>
<path d="M15.8335 5.8335L13.2351 9.1055C12.8371 9.6067 12.6381 9.8573 12.4096 9.97943C12.0584 10.1672 11.6386 10.1764 11.2795 10.004C11.0459 9.89194 10.8362 9.65023 10.4168 9.16681C9.99737 8.68341 9.78765 8.4417 9.5541 8.32962C9.19499 8.15729 8.77525 8.16641 8.42397 8.3542C8.19551 8.47633 7.9965 8.72692 7.59849 9.22811L5 12.5002" stroke="#8C8C8C" stroke-width="1.5" stroke-linecap="round"/>
</g>
<defs>
<clipPath id="clip0_225_234572">
<rect width="20" height="20" fill="white"/>
</clipPath>
</defs>
</svg>
