<svg width="20" height="20" viewBox="0 0 20 20" fill="none" xmlns="http://www.w3.org/2000/svg">
<path d="M3.33203 18.3335H6.66536M16.6654 18.3335H9.9987" stroke="#8C8C8C" stroke-width="1.5" stroke-linecap="round"/>
<path d="M11.5721 3.05228L12.19 2.43436C13.2138 1.41055 14.8737 1.41055 15.8975 2.43436C16.9213 3.45816 16.9213 5.11807 15.8975 6.14187L15.2796 6.75979M11.5721 3.05228C11.5721 3.05228 11.6493 4.36535 12.8079 5.52395C13.9665 6.68255 15.2796 6.75979 15.2796 6.75979M11.5721 3.05228L5.89125 8.7331C5.50647 9.11788 5.31409 9.31027 5.14863 9.52239C4.95345 9.77263 4.78612 10.0434 4.64959 10.3299C4.53385 10.5727 4.44782 10.8308 4.27574 11.3471L3.54657 13.5346M15.2796 6.75979L12.4392 9.60021M9.59877 12.4406C9.21399 12.8254 9.0216 13.0178 8.80947 13.1832C8.55924 13.3784 8.28849 13.5457 8.00202 13.6823C7.75916 13.798 7.50105 13.8841 6.98482 14.0561L4.79731 14.7853M4.79731 14.7853L4.26259 14.9635C4.00855 15.0482 3.72847 14.9821 3.53912 14.7927C3.34977 14.6034 3.28365 14.3233 3.36833 14.0693L3.54657 13.5346M4.79731 14.7853L3.54657 13.5346" stroke="#8C8C8C" stroke-width="1.5" stroke-linecap="round"/>
</svg>
