<svg width="20" height="20" viewBox="0 0 20 20" fill="none" xmlns="http://www.w3.org/2000/svg">
<g clip-path="url(#clip0_225_234379)">
<path d="M13.5968 7.46256C13.8913 7.1713 13.8939 6.69643 13.6027 6.40192C13.3114 6.10741 12.8366 6.10478 12.542 6.39604L13.5968 7.46256ZM8.44531 11.5024L8.9727 12.0357L13.5968 7.46256L13.0694 6.9293L12.542 6.39604L7.91793 10.9692L8.44531 11.5024Z" fill="#8C8C8C"/>
<path d="M15.531 13.0583C14.5225 16.0838 14.0183 17.5966 13.2788 18.0265C12.5754 18.4354 11.7066 18.4354 11.0031 18.0265C10.2637 17.5966 9.7594 16.0838 8.75089 13.0583C8.58896 12.5725 8.50799 12.3296 8.37208 12.1266C8.24036 11.9298 8.07134 11.7608 7.87458 11.6291C7.67155 11.4931 7.42865 11.4122 6.94286 11.2502C3.91733 10.2417 2.40457 9.73748 1.97468 8.99803C1.56573 8.29458 1.56573 7.42577 1.97468 6.72232C2.40457 5.98287 3.91733 5.47861 6.94286 4.47011M16.6894 9.58317L16.9614 8.76717C18.211 5.01852 18.8357 3.14419 17.8463 2.1548C16.857 1.16541 14.9826 1.79018 11.234 3.03973L10.3537 3.33317" stroke="#8C8C8C" stroke-width="1.5" stroke-linecap="round"/>
</g>
<defs>
<clipPath id="clip0_225_234379">
<rect width="20" height="20" fill="white"/>
</clipPath>
</defs>
</svg>
