<svg width="20" height="20" viewBox="0 0 20 20" fill="none" xmlns="http://www.w3.org/2000/svg">
<circle cx="7.4987" cy="7.50016" r="1.66667" stroke="#8C8C8C" stroke-width="1.5"/>
<path d="M10.8346 12.5002C10.8346 13.4206 10.8346 14.1668 7.5013 14.1668C4.16797 14.1668 4.16797 13.4206 4.16797 12.5002C4.16797 11.5797 5.66035 10.8335 7.5013 10.8335C9.34225 10.8335 10.8346 11.5797 10.8346 12.5002Z" stroke="#8C8C8C" stroke-width="1.5"/>
<path d="M18.3346 10.0002C18.3346 13.1429 18.3346 14.7142 17.3583 15.6905C16.382 16.6668 14.8107 16.6668 11.668 16.6668H8.33463C5.19194 16.6668 3.62059 16.6668 2.64428 15.6905C1.66797 14.7142 1.66797 13.1429 1.66797 10.0002C1.66797 6.85747 1.66797 5.28612 2.64428 4.30981C3.62059 3.3335 5.19194 3.3335 8.33464 3.3335H11.668C14.8107 3.3335 16.382 3.3335 17.3583 4.30981C17.7497 4.70114 17.9841 5.18808 18.1246 5.8335" stroke="#8C8C8C" stroke-width="1.5" stroke-linecap="round"/>
<path d="M15.832 10H12.4987" stroke="#8C8C8C" stroke-width="1.5" stroke-linecap="round"/>
<path d="M15.832 7.5H11.6654" stroke="#8C8C8C" stroke-width="1.5" stroke-linecap="round"/>
<path d="M15.832 12.5H13.332" stroke="#8C8C8C" stroke-width="1.5" stroke-linecap="round"/>
</svg>
